<svg xmlns="http://www.w3.org/2000/svg" viewBox="0 0 195 27"><g data-name="Camada 2"><path d="M111.73 17.94h7c-.82 9.23-16.33 10.48-17.77-.4a9.13 9.13 0 0117.17-5.16h1.45c-.12-1-1.47-2.66-1.94-3.21C111.55 2.1 97.16 7 99.57 18.69c2.45 11.87 20.69 10.6 20.9-2.25h-8.73zM131.56 20l-2.34-2.41c3.3-.12 4.84.09 6.71-1.91a5.77 5.77 0 001-6.45c-2.12-4.42-8.12-3.7-13.47-3.37l.06 21.05h1.47V7.39a46.78 46.78 0 017.42.09 4.28 4.28 0 013.46 4 4.38 4.38 0 01-3.28 4.43 55.52 55.52 0 01-7.35.3c.94 1.09 11.07 10.3 11.61 10.68h2c-1.21-1.25-6.06-5.6-7.29-6.89zm61.87-14.17l-.07 17.35-15.57-17.3-.07 21h1.46l.11-16.88C180.54 11.23 194 25.86 195 27V5.83zm-36.6 0h-14.67l.06 21.08h14.61v-1.56h-13.11v-18h13.09zm4.6 19.2l.08-17.65 13.08-.1V5.83l-14.71.09v21h14.68v-1.53h-13.13zm3.18-7.86h7.91v-1.6h-7.92zm-17.72 0h7.9V15.6h-7.9zM60.33 7.92a8.68 8.68 0 012 1A12.19 12.19 0 0164.66 11a8.85 8.85 0 011.08 2h1.6c-1.12-4.12-6.17-8-11.73-7-11.8 2.19-11.61 18.7 0 20.78 5.57 1 10.59-2.88 11.71-6.95h-1.67c-.8 1.46-3.5 6.63-10.34 5.28a9 9 0 115-17.22zm21.21 3.3c-.9-1.79-1.86-3.59-2.72-5.39L68.33 26.91h1.58l2.89-5.83h12l2.9 5.82h1.76c-.58-1.37-1.89-3.68-2.64-5.18zm-7.74 8.32c.11-.54 1.79-4 3.2-6.82.89-1.74 1.67-3.2 1.88-3.47l5 10.29zM21.29 7.43h8.18l.09 19.44H31l.14-19.47h8V5.83H21.29zm20.87-1.59l.09 21.07h1.47V5.84zM15 1l-1.1-1-3.14 3.51 1.08 1zm-4.39 4.79a10.57 10.57 0 1010.61 10.57A10.59 10.59 0 0010.61 5.79zm0 19.52a8.95 8.95 0 119-8.95 9 9 0 01-9 8.95z" fill="none" data-name="Camada 1"/></g></svg>