<svg xmlns="http://www.w3.org/2000/svg" viewBox="0 0 39 39"><g data-name="Camada 2"><path d="M39 10v-.09-.05-.1a.38.38 0 01-.09-.09 1 1 0 00-.24-.14L19.89.19a.42.42 0 00-.37-.19h-.14a.15.15 0 00-.13.05h-.19L.56 9.38H.51l-.23.14-.09.09-.1.09a.19.19 0 000 .1 1 1 0 01.05.37v18.62a.86.86 0 00.51.83l18.55 9.29a.19.19 0 01.1 0 .15.15 0 01.13 0h.28a.16.16 0 00.14 0h.14l18.55-9.29a.86.86 0 00.51-.83V10.21A.4.4 0 0039 10zM19.52 2L36 10.21l-4.83 2.42L14.7 4.41zm-.92 34.54L1.9 28.18V11.7l16.7 8.36zm.92-18.06L3.06 10.21l5.47-2.74L25 15.74zm17.63 9.75l-16.7 8.36V20.06l5.89-2.93v7.34l.6-1.26.61.61.6-1.26.65.65.6-1.21.6.6.65-1.2.61.6.6-1.25.65.65V14l4.64-2.32z" data-name="Camada 1"/></g></svg>