<svg xmlns="http://www.w3.org/2000/svg" viewBox="0 0 22 19"><g data-name="Camada 2"><path d="M.73 0A.72.72 0 000 .71a.73.73 0 00.73.72h2.44Q5 5.81 6.78 10.2l-1.1 2.59a.7.7 0 00.06.67.74.74 0 00.61.31h12.23a.71.71 0 100-1.42H7.45l.64-1.47L19.86 10a.76.76 0 00.66-.55L22 3.24a.74.74 0 00-.72-.86H5.14L4.35.45A.74.74 0 003.67 0zm5 3.8h14.61L19.2 8.59l-11.14.87zM8.8 14.25a2.38 2.38 0 102.44 2.37 2.43 2.43 0 00-2.44-2.37zm7.33 0a2.38 2.38 0 102.45 2.37 2.42 2.42 0 00-2.45-2.37zM8.8 15.67a1 1 0 11-1 1 1 1 0 011-1zm7.33 0a1 1 0 11-1 1 1 1 0 011-1z" data-name="Camada 1"/></g></svg>