<svg xmlns="http://www.w3.org/2000/svg" viewBox="0 0 35 24"><g data-name="Camada 2"><path d="M32 0H3a3.07 3.07 0 00-3 3.05V21a3.07 3.07 0 003 3h29a3.07 3.07 0 003-3V3.05A3.07 3.07 0 0032 0zm1.2 21a1.22 1.22 0 01-1.2 1.2H3A1.22 1.22 0 011.84 21V3.05A1.22 1.22 0 013 1.85h29a1.22 1.22 0 011.2 1.2zM29 13.38H5.53a.93.93 0 000 1.85H29a.93.93 0 000-1.85zm-15.18 4.16H5.53a.92.92 0 100 1.84h8.29a.92.92 0 100-1.84zm7.82 0H17.5a.92.92 0 100 1.84h4.14a.92.92 0 100-1.84zM5.53 11.08h4.6a.93.93 0 00.92-.93V5.54a.92.92 0 00-.92-.92h-4.6a.92.92 0 00-.92.92v4.61a.93.93 0 00.92.93zm.92-4.62h2.76v2.77H6.45zM29 4.62h-4.6a.92.92 0 100 1.84H29a.92.92 0 000-1.84z" data-name="Camada 1"/></g></svg>