<svg xmlns="http://www.w3.org/2000/svg" viewBox="0 0 21 21"><g data-name="Camada 2"><path d="M10.5 5.11a5.21 5.21 0 012.7.73 5.42 5.42 0 012 2 5.36 5.36 0 010 5.4 5.42 5.42 0 01-2 2 5.36 5.36 0 01-5.4 0 5.42 5.42 0 01-2-2 5.36 5.36 0 010-5.4 5.42 5.42 0 012-2 5.21 5.21 0 012.7-.73zm0 8.91A3.36 3.36 0 0013 13a3.48 3.48 0 000-5 3.48 3.48 0 00-5 0 3.48 3.48 0 000 5 3.36 3.36 0 002.5 1zm6.89-9.15a1.27 1.27 0 10-2.16.9 1.22 1.22 0 00.89.37 1.13 1.13 0 00.88-.37 1.43 1.43 0 00.39-.9zM21 6.14v4.36c0 2.03 0 3.49-.07 4.38a8.87 8.87 0 01-.4 2.32 5.49 5.49 0 01-3.33 3.33 8.87 8.87 0 01-2.32.4C14 21 12.53 21 10.5 21s-3.5 0-4.38-.07a7.71 7.71 0 01-2.32-.45 5 5 0 01-2-1.24 5.45 5.45 0 01-1.29-2 8.87 8.87 0 01-.4-2.32C0 14 0 12.53 0 10.5S0 7 .07 6.12a8.87 8.87 0 01.4-2.32A5.49 5.49 0 013.8.47a8.87 8.87 0 012.32-.4C7 0 8.47 0 10.5 0s3.5 0 4.38.07a8.87 8.87 0 012.32.4 5.49 5.49 0 013.33 3.33A9.25 9.25 0 0121 6.14zm-2.3 10.55a9.63 9.63 0 00.38-2.53V9.75 6.84a9.2 9.2 0 00-.38-2.53 3.33 3.33 0 00-2-2 9.2 9.2 0 00-2.53-.38H6.84a9.63 9.63 0 00-2.53.38 3.33 3.33 0 00-2 2 9.2 9.2 0 00-.38 2.53v7.32a9.63 9.63 0 00.38 2.53 3.52 3.52 0 002 2 9.63 9.63 0 002.53.38h7.32a9.2 9.2 0 002.53-.38 3.52 3.52 0 002.01-2z" data-name="Camada 1"/></g></svg>