<svg class="svg-sprites" id="skin-sprite" xmlns="http://www.w3.org/2000/svg" xmlns:xlink="http://www.w3.org/1999/xlink">
    <symbol viewBox="0 0 195 27" id="logo" xmlns="http://www.w3.org/2000/svg"><g data-name="Camada 2"><path d="M111.73 17.94h7c-.82 9.23-16.33 10.48-17.77-.4a9.13 9.13 0 0117.17-5.16h1.45c-.12-1-1.47-2.66-1.94-3.21C111.55 2.1 97.16 7 99.57 18.69c2.45 11.87 20.69 10.6 20.9-2.25h-8.73zM131.56 20l-2.34-2.41c3.3-.12 4.84.09 6.71-1.91a5.77 5.77 0 001-6.45c-2.12-4.42-8.12-3.7-13.47-3.37l.06 21.05h1.47V7.39a46.78 46.78 0 017.42.09 4.28 4.28 0 013.46 4 4.38 4.38 0 01-3.28 4.43 55.52 55.52 0 01-7.35.3c.94 1.09 11.07 10.3 11.61 10.68h2c-1.21-1.25-6.06-5.6-7.29-6.89zm61.87-14.17l-.07 17.35-15.57-17.3-.07 21h1.46l.11-16.88C180.54 11.23 194 25.86 195 27V5.83zm-36.6 0h-14.67l.06 21.08h14.61v-1.56h-13.11v-18h13.09zm4.6 19.2l.08-17.65 13.08-.1V5.83l-14.71.09v21h14.68v-1.53h-13.13zm3.18-7.86h7.91v-1.6h-7.92zm-17.72 0h7.9V15.6h-7.9zM60.33 7.92a8.68 8.68 0 012 1A12.19 12.19 0 0164.66 11a8.85 8.85 0 011.08 2h1.6c-1.12-4.12-6.17-8-11.73-7-11.8 2.19-11.61 18.7 0 20.78 5.57 1 10.59-2.88 11.71-6.95h-1.67c-.8 1.46-3.5 6.63-10.34 5.28a9 9 0 115-17.22zm21.21 3.3c-.9-1.79-1.86-3.59-2.72-5.39L68.33 26.91h1.58l2.89-5.83h12l2.9 5.82h1.76c-.58-1.37-1.89-3.68-2.64-5.18zm-7.74 8.32c.11-.54 1.79-4 3.2-6.82.89-1.74 1.67-3.2 1.88-3.47l5 10.29zM21.29 7.43h8.18l.09 19.44H31l.14-19.47h8V5.83H21.29zm20.87-1.59l.09 21.07h1.47V5.84zM15 1l-1.1-1-3.14 3.51 1.08 1zm-4.39 4.79a10.57 10.57 0 1010.61 10.57A10.59 10.59 0 0010.61 5.79zm0 19.52a8.95 8.95 0 119-8.95 9 9 0 01-9 8.95z" fill="none" data-name="Camada 1"/></g></symbol>
    <symbol viewBox="0 0 39 39" id="z-box" xmlns="http://www.w3.org/2000/svg"><g data-name="Camada 2"><path d="M39 10V9.76a.38.38 0 01-.09-.09 1 1 0 00-.24-.14L19.89.19a.42.42 0 00-.37-.19h-.14a.15.15 0 00-.13.05h-.19L.56 9.38H.51l-.23.14-.09.09-.1.09a.19.19 0 000 .1 1 1 0 01.05.37v18.62a.86.86 0 00.51.83l18.55 9.29a.19.19 0 01.1 0 .15.15 0 01.13 0h.28a.16.16 0 00.14 0h.14l18.55-9.29a.86.86 0 00.51-.83V10.21A.4.4 0 0039 10zM19.52 2L36 10.21l-4.83 2.42L14.7 4.41zm-.92 34.54L1.9 28.18V11.7l16.7 8.36zm.92-18.06L3.06 10.21l5.47-2.74L25 15.74zm17.63 9.75l-16.7 8.36V20.06l5.89-2.93v7.34l.6-1.26.61.61.6-1.26.65.65.6-1.21.6.6.65-1.2.61.6.6-1.25.65.65V14l4.64-2.32z" data-name="Camada 1"/></g></symbol>
    <symbol viewBox="0 0 35 24" id="z-card" xmlns="http://www.w3.org/2000/svg"><g data-name="Camada 2"><path d="M32 0H3a3.07 3.07 0 00-3 3.05V21a3.07 3.07 0 003 3h29a3.07 3.07 0 003-3V3.05A3.07 3.07 0 0032 0zm1.2 21a1.22 1.22 0 01-1.2 1.2H3A1.22 1.22 0 011.84 21V3.05A1.22 1.22 0 013 1.85h29a1.22 1.22 0 011.2 1.2zM29 13.38H5.53a.93.93 0 000 1.85H29a.93.93 0 000-1.85zm-15.18 4.16H5.53a.92.92 0 100 1.84h8.29a.92.92 0 100-1.84zm7.82 0H17.5a.92.92 0 100 1.84h4.14a.92.92 0 100-1.84zM5.53 11.08h4.6a.93.93 0 00.92-.93V5.54a.92.92 0 00-.92-.92h-4.6a.92.92 0 00-.92.92v4.61a.93.93 0 00.92.93zm.92-4.62h2.76v2.77H6.45zM29 4.62h-4.6a.92.92 0 100 1.84H29a.92.92 0 000-1.84z" data-name="Camada 1"/></g></symbol>
    <symbol viewBox="0 0 22 19" id="z-cart" xmlns="http://www.w3.org/2000/svg"><g data-name="Camada 2"><path d="M.73 0A.72.72 0 000 .71a.73.73 0 00.73.72h2.44Q5 5.81 6.78 10.2l-1.1 2.59a.7.7 0 00.06.67.74.74 0 00.61.31h12.23a.71.71 0 100-1.42H7.45l.64-1.47L19.86 10a.76.76 0 00.66-.55L22 3.24a.74.74 0 00-.72-.86H5.14L4.35.45A.74.74 0 003.67 0zm5 3.8h14.61L19.2 8.59l-11.14.87zM8.8 14.25a2.38 2.38 0 102.44 2.37 2.43 2.43 0 00-2.44-2.37zm7.33 0a2.38 2.38 0 102.45 2.37 2.42 2.42 0 00-2.45-2.37zM8.8 15.67a1 1 0 11-1 1 1 1 0 011-1zm7.33 0a1 1 0 11-1 1 1 1 0 011-1z" data-name="Camada 1"/></g></symbol>
    <symbol viewBox="0 0 60 30" id="z-email" xmlns="http://www.w3.org/2000/svg"><g data-name="Camada 2"><path d="M16.42 0v10.41H19V4.12l11.72 10L19 25.6v-8.69h-2.58v1.88h-8v2.6h8V30H60V0zm4.84 2.6h33.92L38.24 17.1zm-.34 24.8l11.82-11.57 5.5 4.7 5.6-4.8L55.55 27.4zm36.47-1.83L45.83 14l11.56-9.9zM14.76 4.83H2.28v2.6h12.48zM24.6 12H0v2.6h24.6zM0 26.88h12.16v-2.6H0z" data-name="Camada 1"/></g></symbol>
    <symbol viewBox="0 0 10.31 20" id="z-facebook" xmlns="http://www.w3.org/2000/svg"><g data-name="Camada 2"><path d="M3 20h3.68v-8.95h2.85L10 7.5H6.68V5A2 2 0 017 3.79a1.82 1.82 0 011.45-.47h1.87V.16A18.34 18.34 0 007.58 0a4.52 4.52 0 00-3.32 1.23A4.6 4.6 0 003 4.69V7.5H0v3.55h3z" data-name="Camada 1"/></g></symbol>
    <symbol viewBox="0 0 21 21" id="z-instagram" xmlns="http://www.w3.org/2000/svg"><g data-name="Camada 2"><path d="M10.5 5.11a5.21 5.21 0 012.7.73 5.42 5.42 0 012 2 5.36 5.36 0 010 5.4 5.42 5.42 0 01-2 2 5.36 5.36 0 01-5.4 0 5.42 5.42 0 01-2-2 5.36 5.36 0 010-5.4 5.42 5.42 0 012-2 5.21 5.21 0 012.7-.73zm0 8.91A3.36 3.36 0 0013 13a3.48 3.48 0 000-5 3.48 3.48 0 00-5 0 3.48 3.48 0 000 5 3.36 3.36 0 002.5 1zm6.89-9.15a1.27 1.27 0 10-2.16.9 1.22 1.22 0 00.89.37 1.13 1.13 0 00.88-.37 1.43 1.43 0 00.39-.9zM21 6.14v4.36c0 2.03 0 3.49-.07 4.38a8.87 8.87 0 01-.4 2.32 5.49 5.49 0 01-3.33 3.33 8.87 8.87 0 01-2.32.4C14 21 12.53 21 10.5 21s-3.5 0-4.38-.07a7.71 7.71 0 01-2.32-.45 5 5 0 01-2-1.24 5.45 5.45 0 01-1.29-2 8.87 8.87 0 01-.4-2.32C0 14 0 12.53 0 10.5S0 7 .07 6.12a8.87 8.87 0 01.4-2.32A5.49 5.49 0 013.8.47a8.87 8.87 0 012.32-.4C7 0 8.47 0 10.5 0s3.5 0 4.38.07a8.87 8.87 0 012.32.4 5.49 5.49 0 013.33 3.33A9.25 9.25 0 0121 6.14zm-2.3 10.55a9.63 9.63 0 00.38-2.53V6.84a9.2 9.2 0 00-.38-2.53 3.33 3.33 0 00-2-2 9.2 9.2 0 00-2.53-.38H6.84a9.63 9.63 0 00-2.53.38 3.33 3.33 0 00-2 2 9.2 9.2 0 00-.38 2.53v7.32a9.63 9.63 0 00.38 2.53 3.52 3.52 0 002 2 9.63 9.63 0 002.53.38h7.32a9.2 9.2 0 002.53-.38 3.52 3.52 0 002.01-2z" data-name="Camada 1"/></g></symbol>
    <symbol viewBox="0 0 14 14" id="z-search" xmlns="http://www.w3.org/2000/svg"><g data-name="Camada 2"><path d="M13.79 12.84L10.73 10a6.17 6.17 0 10-1 .92l3.11 2.93a.67.67 0 10.92-1zM1.34 6.07a4.74 4.74 0 114.73 4.74 4.73 4.73 0 01-4.73-4.74z" data-name="Camada 1"/></g></symbol>
</svg>